# xmcd
#
# Track frame offsets: 
#        150
#        10297
#        22525
#        35044
#        42317
#        51502
#        62077
#        72309
#        80712
#        92907
#        100543
#        108456
#
# Disc length: 1593 seconds
#
# Revision: 0
# Processed by: cddbd v1.5.2PL0 Copyright (c) Steve Scherf et al.
# Submitted via: ExactAudioCopy v0.95b4
#
DISCID=9b06370c
DTITLE=Walter Hensley - From The Hills
DYEAR=2006
DGENRE=Bluegrass
TTITLE0=Walt's Breakdown
TTITLE1=Rose Conlee
TTITLE2=Bear Tracks
TTITLE3=East Virginia Blues
TTITLE4=Long Way From Home
TTITLE5=When You're Smiling
TTITLE6=Edsel Breakdown
TTITLE7=Sugar Creek
TTITLE8=Kickin' Mule
TTITLE9=America The Beautiful
TTITLE10=Foggy Mountain Chimes
TTITLE11=The World Is Waiting For
EXTD=
EXTT0=
EXTT1=
EXTT2=
EXTT3=
EXTT4=
EXTT5=
EXTT6=
EXTT7=
EXTT8=
EXTT9=
EXTT10=
EXTT11=
PLAYORDER=
